<svg xmlns="http://www.w3.org/2000/svg" viewBox="0 0 30 30" fill="#8E9297"><path d="M 8 3 C 6.343 3 5 4.343 5 6 L 5 24 A 1.0001 1.0001 0 0 0 5.2949219 24.708984 C 5.6477556 25.972969 6.6303589 27 8 27 L 24 27 A 1.0001 1.0001 0 1 0 24 25 L 8 25 C 7.4349698 25 7 24.56503 7 24 C 7 23.43497 7.4349698 23 8 23 L 23 23 C 24.105 23 25 22.105 25 21 L 25 5 C 25 3.895 24.105 3 23 3 L 8 3 z M 12 9 L 19 9 C 19.552 9 20 9.448 20 10 C 20 10.552 19.552 11 19 11 L 12 11 C 11.448 11 11 10.552 11 10 C 11 9.448 11.448 9 12 9 z"></path></svg>
