<svg xmlns="http://www.w3.org/2000/svg" viewBox="0 0 334.871 334.871" fill="#8E9297">
	<path d="M167.436,0C75.111,0,0,75.111,0,167.436s75.111,167.436,167.436,167.436s167.436-75.111,167.436-167.436
		S259.76,0,167.436,0z M167.436,299.871C94.41,299.871,35,240.461,35,167.436S94.41,35,167.436,35s132.436,59.41,132.436,132.436
		S240.461,299.871,167.436,299.871z"/>
	<path d="M210.616,222.657c-12.682,10.195-28.009,15.585-44.323,15.585c-39.043,0-70.807-31.763-70.807-70.806
		S127.25,96.63,166.293,96.63c13.691,0,26.968,3.909,38.398,11.303c8.117,5.251,18.95,2.927,24.199-5.188
		c5.25-8.115,2.927-18.949-5.188-24.199c-17.106-11.066-36.958-16.916-57.409-16.916c-58.342,0-105.807,47.464-105.807,105.806
		s47.465,105.806,105.807,105.806c24.029,0,47.559-8.277,66.253-23.307c7.532-6.056,8.729-17.071,2.674-24.604
		C229.164,217.797,218.146,216.6,210.616,222.657z"/>
</svg>