<svg viewBox="0 0 1024 1024" xmlns="http://www.w3.org/2000/svg" fill="#8B8F94"><path d="M938.666667 938.666667 853.333333 938.666667 853.333333 853.333333 938.666667 853.333333 938.666667 938.666667M938.666667 768 853.333333 768 853.333333 682.666667 938.666667 682.666667 938.666667 768M768 938.666667 682.666667 938.666667 682.666667 853.333333 768 853.333333 768 938.666667M768 768 682.666667 768 682.666667 682.666667 768 682.666667 768 768M597.333333 938.666667 512 938.666667 512 853.333333 597.333333 853.333333 597.333333 938.666667M938.666667 597.333333 853.333333 597.333333 853.333333 512 938.666667 512 938.666667 597.333333Z"  /></svg>